<svg xmlns="http://www.w3.org/2000/svg" xmlns:xlink="http://www.w3.org/1999/xlink" width="1920" zoomAndPan="magnify" viewBox="0 0 1440 809.999993" height="1080" preserveAspectRatio="xMidYMid meet" version="1.0"><defs><filter x="0%" y="0%" width="100%" height="100%" id="4347f8d32f"><feColorMatrix values="0 0 0 0 1 0 0 0 0 1 0 0 0 0 1 0 0 0 1 0" color-interpolation-filters="sRGB"/></filter><g/><mask id="c8d83ff785"><g filter="url(#4347f8d32f)"><rect x="-144" width="1728" fill="#000000" y="-80.999999" height="971.999992" fill-opacity="0.11"/></g></mask><clipPath id="23d89dad51"><path d="M 0.609375 0.789062 L 644.109375 0.789062 L 644.109375 644.289062 L 0.609375 644.289062 Z M 0.609375 0.789062 " clip-rule="nonzero"/></clipPath><clipPath id="ffda0e83d7"><rect x="0" width="645" y="0" height="645"/></clipPath></defs><g mask="url(#c8d83ff785)"><g transform="matrix(1, 0, 0, 1, 397, 82)"><g clip-path="url(#ffda0e83d7)"><g clip-path="url(#23d89dad51)"><path fill="#00c8ff" d="M 0.609375 322.640625 C 0.609375 317.371094 0.738281 312.109375 1 306.847656 C 1.257812 301.585938 1.644531 296.335938 2.160156 291.09375 C 2.675781 285.851562 3.320312 280.625 4.09375 275.414062 C 4.867188 270.203125 5.765625 265.015625 6.792969 259.847656 C 7.824219 254.683594 8.976562 249.546875 10.257812 244.4375 C 11.535156 239.328125 12.941406 234.25 14.46875 229.210938 C 16 224.171875 17.648438 219.171875 19.425781 214.210938 C 21.199219 209.253906 23.09375 204.339844 25.109375 199.472656 C 27.125 194.605469 29.257812 189.792969 31.511719 185.03125 C 33.765625 180.269531 36.132812 175.566406 38.613281 170.921875 C 41.097656 166.273438 43.691406 161.695312 46.402344 157.175781 C 49.109375 152.65625 51.925781 148.207031 54.851562 143.828125 C 57.777344 139.449219 60.808594 135.144531 63.949219 130.914062 C 67.085938 126.683594 70.324219 122.53125 73.667969 118.460938 C 77.007812 114.386719 80.449219 110.402344 83.984375 106.5 C 87.523438 102.59375 91.152344 98.78125 94.878906 95.058594 C 98.601562 91.332031 102.417969 87.703125 106.320312 84.164062 C 110.222656 80.628906 114.210938 77.1875 118.28125 73.847656 C 122.351562 70.503906 126.503906 67.265625 130.734375 64.128906 C 134.964844 60.988281 139.269531 57.957031 143.648438 55.03125 C 148.03125 52.105469 152.480469 49.289062 156.996094 46.578125 C 161.515625 43.871094 166.097656 41.277344 170.742188 38.792969 C 175.386719 36.308594 180.089844 33.941406 184.851562 31.691406 C 189.613281 29.4375 194.425781 27.304688 199.292969 25.289062 C 204.160156 23.273438 209.074219 21.378906 214.03125 19.605469 C 218.992188 17.828125 223.992188 16.175781 229.03125 14.648438 C 234.074219 13.121094 239.148438 11.714844 244.257812 10.433594 C 249.367188 9.15625 254.503906 8 259.671875 6.972656 C 264.835938 5.945312 270.023438 5.046875 275.234375 4.273438 C 280.445312 3.5 285.671875 2.855469 290.914062 2.339844 C 296.15625 1.824219 301.40625 1.4375 306.667969 1.175781 C 311.929688 0.917969 317.191406 0.789062 322.460938 0.789062 C 327.726562 0.789062 332.992188 0.917969 338.253906 1.175781 C 343.511719 1.4375 348.765625 1.824219 354.007812 2.339844 C 359.25 2.855469 364.476562 3.5 369.683594 4.273438 C 374.894531 5.046875 380.082031 5.945312 385.25 6.972656 C 390.417969 8 395.554688 9.15625 400.664062 10.433594 C 405.773438 11.714844 410.847656 13.121094 415.886719 14.648438 C 420.929688 16.175781 425.929688 17.828125 430.886719 19.605469 C 435.847656 21.378906 440.761719 23.273438 445.625 25.289062 C 450.492188 27.304688 455.308594 29.4375 460.070312 31.691406 C 464.832031 33.941406 469.535156 36.308594 474.179688 38.792969 C 478.824219 41.277344 483.40625 43.871094 487.925781 46.578125 C 492.441406 49.289062 496.890625 52.105469 501.269531 55.03125 C 505.648438 57.957031 509.953125 60.988281 514.1875 64.128906 C 518.417969 67.265625 522.566406 70.503906 526.640625 73.847656 C 530.710938 77.1875 534.699219 80.628906 538.601562 84.164062 C 542.503906 87.703125 546.316406 91.332031 550.042969 95.058594 C 553.765625 98.78125 557.398438 102.59375 560.933594 106.5 C 564.472656 110.402344 567.910156 114.386719 571.253906 118.460938 C 574.59375 122.53125 577.835938 126.683594 580.972656 130.914062 C 584.109375 135.144531 587.140625 139.449219 590.066406 143.828125 C 592.996094 148.207031 595.8125 152.65625 598.519531 157.175781 C 601.226562 161.695312 603.824219 166.273438 606.304688 170.921875 C 608.789062 175.566406 611.15625 180.269531 613.410156 185.03125 C 615.660156 189.792969 617.792969 194.605469 619.808594 199.472656 C 621.824219 204.339844 623.722656 209.253906 625.496094 214.210938 C 627.269531 219.171875 628.921875 224.171875 630.449219 229.210938 C 631.980469 234.25 633.382812 239.328125 634.664062 244.4375 C 635.945312 249.546875 637.097656 254.683594 638.125 259.847656 C 639.152344 265.015625 640.054688 270.203125 640.828125 275.414062 C 641.597656 280.625 642.242188 285.851562 642.761719 291.09375 C 643.277344 296.335938 643.664062 301.585938 643.921875 306.847656 C 644.179688 312.109375 644.308594 317.371094 644.308594 322.640625 C 644.308594 327.90625 644.179688 333.171875 643.921875 338.433594 C 643.664062 343.691406 643.277344 348.945312 642.761719 354.1875 C 642.242188 359.429688 641.597656 364.652344 640.828125 369.863281 C 640.054688 375.074219 639.152344 380.261719 638.125 385.429688 C 637.097656 390.59375 635.945312 395.734375 634.664062 400.84375 C 633.382812 405.953125 631.980469 411.027344 630.449219 416.066406 C 628.921875 421.109375 627.269531 426.109375 625.496094 431.066406 C 623.722656 436.027344 621.824219 440.9375 619.808594 445.804688 C 617.792969 450.671875 615.660156 455.484375 613.410156 460.246094 C 611.15625 465.007812 608.789062 469.710938 606.304688 474.359375 C 603.824219 479.003906 601.226562 483.585938 598.519531 488.101562 C 595.8125 492.621094 592.996094 497.070312 590.066406 501.449219 C 587.140625 505.828125 584.109375 510.132812 580.972656 514.363281 C 577.835938 518.59375 574.59375 522.746094 571.253906 526.820312 C 567.910156 530.890625 564.472656 534.878906 560.933594 538.78125 C 557.398438 542.683594 553.765625 546.496094 550.042969 550.222656 C 546.316406 553.945312 542.503906 557.578125 538.601562 561.113281 C 534.699219 564.652344 530.710938 568.089844 526.640625 571.433594 C 522.566406 574.773438 518.417969 578.011719 514.1875 581.152344 C 509.953125 584.289062 505.648438 587.320312 501.269531 590.246094 C 496.890625 593.171875 492.441406 595.992188 487.925781 598.699219 C 483.40625 601.40625 478.824219 604.003906 474.179688 606.484375 C 469.535156 608.96875 464.832031 611.335938 460.070312 613.585938 C 455.308594 615.839844 450.492188 617.972656 445.625 619.988281 C 440.761719 622.003906 435.847656 623.898438 430.886719 625.675781 C 425.929688 627.449219 420.929688 629.101562 415.886719 630.628906 C 410.847656 632.160156 405.773438 633.5625 400.664062 634.84375 C 395.554688 636.125 390.417969 637.277344 385.25 638.304688 C 380.082031 639.332031 374.894531 640.230469 369.683594 641.003906 C 364.476562 641.777344 359.25 642.421875 354.007812 642.9375 C 348.765625 643.457031 343.511719 643.84375 338.253906 644.101562 C 332.992188 644.359375 327.726562 644.488281 322.460938 644.488281 C 317.191406 644.488281 311.929688 644.359375 306.667969 644.101562 C 301.40625 643.84375 296.15625 643.457031 290.914062 642.9375 C 285.671875 642.421875 280.445312 641.777344 275.234375 641.003906 C 270.023438 640.230469 264.835938 639.332031 259.671875 638.304688 C 254.503906 637.277344 249.367188 636.125 244.257812 634.84375 C 239.148438 633.5625 234.074219 632.160156 229.03125 630.628906 C 223.992188 629.101562 218.992188 627.449219 214.03125 625.675781 C 209.074219 623.898438 204.160156 622.003906 199.292969 619.988281 C 194.425781 617.972656 189.613281 615.839844 184.851562 613.585938 C 180.089844 611.335938 175.386719 608.96875 170.742188 606.484375 C 166.097656 604.003906 161.515625 601.40625 156.996094 598.699219 C 152.480469 595.992188 148.03125 593.171875 143.648438 590.246094 C 139.269531 587.320312 134.964844 584.289062 130.734375 581.152344 C 126.503906 578.011719 122.351562 574.773438 118.28125 571.433594 C 114.210938 568.089844 110.222656 564.652344 106.320312 561.113281 C 102.417969 557.578125 98.601562 553.945312 94.878906 550.222656 C 91.152344 546.496094 87.523438 542.683594 83.984375 538.78125 C 80.449219 534.878906 77.007812 530.890625 73.667969 526.820312 C 70.324219 522.746094 67.085938 518.59375 63.949219 514.363281 C 60.808594 510.132812 57.777344 505.828125 54.851562 501.449219 C 51.925781 497.070312 49.109375 492.621094 46.402344 488.101562 C 43.691406 483.585938 41.097656 479.003906 38.613281 474.359375 C 36.132812 469.710938 33.765625 465.007812 31.511719 460.246094 C 29.257812 455.484375 27.125 450.671875 25.109375 445.804688 C 23.09375 440.9375 21.199219 436.027344 19.425781 431.066406 C 17.648438 426.109375 16 421.109375 14.46875 416.066406 C 12.941406 411.027344 11.535156 405.953125 10.257812 400.84375 C 8.976562 395.734375 7.824219 390.59375 6.792969 385.429688 C 5.765625 380.261719 4.867188 375.074219 4.09375 369.863281 C 3.320312 364.652344 2.675781 359.429688 2.160156 354.1875 C 1.644531 348.945312 1.257812 343.691406 1 338.433594 C 0.738281 333.171875 0.609375 327.90625 0.609375 322.640625 M 302.34375 44.117188 C 275.390625 52.324219 248.636719 77.109375 226.429688 118.746094 C 220.660156 129.554688 215.363281 141.25 210.535156 153.828125 C 238.898438 160.144531 269.757812 164.167969 302.34375 165.375 Z M 171.554688 143.167969 C 177.292969 127.691406 183.742188 113.234375 190.902344 99.796875 C 197.917969 86.652344 205.921875 74.140625 214.921875 62.261719 C 197.792969 69.355469 181.527344 78.054688 166.117188 88.359375 C 150.707031 98.664062 136.453125 110.375 123.355469 123.496094 C 137.945312 130.925781 154.011719 137.496094 171.554688 143.207031 Z M 141.78125 302.523438 C 143.230469 259.476562 149.34375 218.5625 159.324219 181.507812 C 137.484375 174.554688 116.5 165.609375 96.359375 154.675781 C 88.390625 165.375 81.21875 176.585938 74.851562 188.308594 C 68.480469 200.035156 62.976562 212.152344 58.339844 224.664062 C 53.703125 237.171875 49.980469 249.949219 47.171875 262.992188 C 44.359375 276.035156 42.492188 289.214844 41.566406 302.523438 Z M 198.105469 192.25 C 188.574219 228.398438 183.210938 265.15625 182.011719 302.523438 L 302.34375 302.523438 L 302.34375 205.605469 C 265.734375 204.398438 230.613281 199.773438 198.105469 192.25 M 342.574219 205.566406 L 342.574219 302.523438 L 462.867188 302.523438 C 461.683594 265.160156 456.332031 228.402344 446.816406 192.25 C 414.308594 199.773438 379.1875 204.359375 342.574219 205.605469 Z M 182.054688 342.753906 C 183.460938 382.464844 189.132812 419.757812 198.105469 453.027344 C 232.421875 445.238281 267.171875 440.796875 302.34375 439.710938 L 302.34375 342.753906 Z M 342.574219 342.753906 L 342.574219 439.671875 C 379.1875 440.878906 414.308594 445.503906 446.816406 453.027344 C 455.785156 419.757812 461.460938 382.464844 462.90625 342.753906 Z M 210.535156 491.449219 C 215.363281 504.027344 220.660156 515.722656 226.429688 526.53125 C 248.636719 568.171875 275.429688 592.914062 302.34375 601.160156 L 302.34375 479.941406 C 269.757812 481.148438 238.898438 485.171875 210.535156 491.488281 Z M 214.960938 583.015625 C 205.949219 571.140625 197.929688 558.628906 190.902344 545.480469 C 183.503906 531.433594 177.050781 516.964844 171.554688 502.070312 C 154.980469 507.398438 138.914062 513.972656 123.355469 521.785156 C 136.453125 534.902344 150.707031 546.617188 166.117188 556.921875 C 181.527344 567.226562 197.792969 575.921875 214.921875 583.015625 Z M 159.324219 463.769531 C 148.859375 424.101562 142.996094 383.761719 141.742188 342.753906 L 41.566406 342.753906 C 42.492188 356.066406 44.359375 369.242188 47.171875 382.285156 C 49.980469 395.328125 53.703125 408.105469 58.339844 420.617188 C 62.976562 433.128906 68.480469 445.246094 74.851562 456.96875 C 81.21875 468.695312 88.390625 479.90625 96.359375 490.605469 C 115.269531 480.226562 136.390625 471.214844 159.324219 463.769531 M 430 583.015625 C 447.117188 575.925781 463.378906 567.234375 478.78125 556.9375 C 494.183594 546.636719 508.429688 534.933594 521.523438 521.824219 C 505.980469 514.011719 489.925781 507.441406 473.367188 502.109375 C 467.867188 516.992188 461.417969 531.449219 454.015625 545.480469 C 447.003906 558.628906 438.996094 571.140625 430 583.015625 M 342.574219 479.902344 L 342.574219 601.160156 C 369.53125 592.953125 396.285156 568.171875 418.492188 526.53125 C 424.285156 515.722656 429.582031 504.027344 434.382812 491.449219 C 404.132812 484.808594 373.53125 480.972656 342.574219 479.941406 Z M 485.597656 463.769531 C 508.53125 471.214844 529.652344 480.226562 548.558594 490.605469 C 556.53125 479.90625 563.703125 468.695312 570.070312 456.96875 C 576.4375 445.246094 581.941406 433.128906 586.578125 420.617188 C 591.214844 408.105469 594.9375 395.328125 597.75 382.285156 C 600.558594 369.242188 602.429688 356.066406 603.355469 342.753906 L 503.179688 342.753906 C 501.921875 383.761719 496.0625 424.101562 485.597656 463.769531 M 603.355469 302.523438 C 602.429688 289.214844 600.558594 276.035156 597.75 262.992188 C 594.9375 249.949219 591.214844 237.171875 586.578125 224.664062 C 581.941406 212.152344 576.4375 200.035156 570.070312 188.308594 C 563.703125 176.585938 556.53125 165.375 548.558594 154.675781 C 529.652344 165.054688 508.53125 174.066406 485.597656 181.507812 C 495.574219 218.519531 501.691406 259.476562 503.179688 302.523438 Z M 454.015625 99.796875 C 461.152344 113.261719 467.613281 127.71875 473.40625 143.167969 C 489.953125 137.835938 505.992188 131.261719 521.523438 123.453125 C 508.429688 110.351562 494.179688 98.65625 478.777344 88.363281 C 463.375 78.074219 447.117188 69.386719 430 62.304688 C 438.769531 73.6875 446.816406 86.320312 454.015625 99.796875 M 434.382812 153.828125 C 429.789062 141.816406 424.488281 130.125 418.492188 118.746094 C 396.285156 77.109375 369.53125 52.367188 342.574219 44.117188 L 342.574219 165.335938 C 375.164062 164.128906 406.019531 160.105469 434.382812 153.789062 Z M 434.382812 153.828125 " fill-opacity="1" fill-rule="nonzero"/></g></g></g></g><g fill="#00c8ff" fill-opacity="1"><g transform="translate(429.504897, 482.306044)"><g><path d="M 155.6875 -126.609375 L 75.859375 8.84375 L -4.15625 -126.609375 Z M 155.6875 -126.609375 "/></g></g></g><g fill="#00c8ff" fill-opacity="1"><g transform="translate(580.850084, 482.306044)"><g><path d="M 5.234375 -126.421875 L 70.984375 -126.421875 L 70.984375 0 L 5.234375 0 Z M 5.234375 -126.421875 "/></g></g></g><g fill="#00c8ff" fill-opacity="1"><g transform="translate(657.245108, 482.306044)"><g><path d="M 93.015625 -63.03125 L 93.015625 0.1875 L 29.796875 0.1875 L 29.796875 -63.03125 L 3.609375 -63.03125 L 3.609375 -126.421875 L 117.578125 -126.421875 L 117.578125 -63.03125 Z M 93.015625 -63.03125 "/></g></g></g><g fill="#00c8ff" fill-opacity="1"><g transform="translate(778.610246, 482.306044)"><g><path d="M 5.234375 -126.609375 L 109.984375 -126.609375 L 109.984375 -83.984375 L 83.796875 -83.984375 L 83.796875 -78.5625 L 109.984375 -78.5625 L 109.984375 -48.21875 L 83.796875 -48.21875 L 83.796875 -42.796875 L 109.984375 -42.796875 L 109.984375 -0.1875 L 5.234375 -0.1875 Z M 5.234375 -126.609375 "/></g></g></g><g fill="#00c8ff" fill-opacity="1"><g transform="translate(893.83486, 482.306044)"><g><path d="M 21.5 -110.359375 C 28 -116.859375 35.3125 -121.734375 43.4375 -124.984375 C 51.5625 -128.234375 59.925781 -129.859375 68.53125 -129.859375 C 77.144531 -129.859375 85.515625 -128.234375 93.640625 -124.984375 C 101.773438 -121.734375 109.09375 -116.859375 115.59375 -110.359375 L 68.453125 -63.390625 L 115.59375 -16.25 C 109.09375 -9.75 101.773438 -4.875 93.640625 -1.625 C 85.515625 1.625 77.144531 3.25 68.53125 3.25 C 59.925781 3.25 51.5625 1.625 43.4375 -1.625 C 35.3125 -4.875 28 -9.75 21.5 -16.25 C 14.988281 -22.75 10.109375 -30.0625 6.859375 -38.1875 C 3.609375 -46.320312 1.984375 -54.691406 1.984375 -63.296875 C 1.984375 -71.910156 3.609375 -80.28125 6.859375 -88.40625 C 10.109375 -96.53125 14.988281 -103.847656 21.5 -110.359375 Z M 21.5 -110.359375 "/></g></g></g></svg>